<svg xmlns="http://www.w3.org/2000/svg" viewBox="0 0 64 64">
  <defs>
    <radialGradient id="head" cx="36%" cy="24%" r="90%">
      <stop offset="0%" stop-color="#b98a5c"/>
      <stop offset="45%" stop-color="#96683a"/>
      <stop offset="100%" stop-color="#6b4520"/>
    </radialGradient>
    <radialGradient id="ao" cx="50%" cy="42%" r="58%">
      <stop offset="62%" stop-color="#42280c" stop-opacity="0"/>
      <stop offset="100%" stop-color="#42280c" stop-opacity="0.3"/>
    </radialGradient>
    <radialGradient id="sheen" cx="50%" cy="50%" r="50%">
      <stop offset="0%" stop-color="#ffffff" stop-opacity="0.4"/>
      <stop offset="100%" stop-color="#ffffff" stop-opacity="0"/>
    </radialGradient>
    <radialGradient id="ear" cx="42%" cy="30%" r="90%">
      <stop offset="0%" stop-color="#a97e4f"/>
      <stop offset="100%" stop-color="#6b4520"/>
    </radialGradient>
    <radialGradient id="face" cx="48%" cy="22%" r="90%">
      <stop offset="0%" stop-color="#fbe6c4"/>
      <stop offset="70%" stop-color="#f2d3a4"/>
      <stop offset="100%" stop-color="#d5ac72"/>
    </radialGradient>
    <radialGradient id="blush" cx="50%" cy="50%" r="50%">
      <stop offset="0%" stop-color="#f0824b" stop-opacity="0.45"/>
      <stop offset="100%" stop-color="#f0824b" stop-opacity="0"/>
    </radialGradient>
    <linearGradient id="tongue" x1="0" y1="0" x2="0" y2="1">
      <stop offset="0%" stop-color="#ff9d9d"/>
      <stop offset="100%" stop-color="#f2606c"/>
    </linearGradient>
    <clipPath id="mouth"><path d="M26 47.5 Q32 50.3 38 47.5 Q37.1 54.4 32 54.4 Q26.9 54.4 26 47.5 Z"/></clipPath>
  </defs>

  <circle cx="9.5" cy="32" r="7" fill="url(#ear)"/>
  <circle cx="54.5" cy="32" r="7" fill="url(#ear)"/>
  <circle cx="10.5" cy="32.5" r="3.8" fill="#f2d3a4"/>
  <circle cx="53.5" cy="32.5" r="3.8" fill="#f2d3a4"/>

  <ellipse cx="32" cy="36" rx="20.5" ry="19.5" fill="url(#head)"/>
  <ellipse cx="32" cy="36" rx="20.5" ry="19.5" fill="url(#ao)"/>
  <ellipse cx="24" cy="24.5" rx="11.5" ry="8.5" fill="url(#sheen)"/>

  <path d="M20.5 33 Q21 26.5 26.5 25.5 Q30 25 32 27.5 Q34 25 37.5 25.5 Q43 26.5 43.5 33 Q46 39 43 46.5 Q39.5 53.5 32 53.5 Q24.5 53.5 21 46.5 Q18 39 20.5 33 Z" fill="url(#face)"/>

  <ellipse cx="18.5" cy="41" rx="3.6" ry="2.8" fill="url(#blush)"/>
  <ellipse cx="45.5" cy="41" rx="3.6" ry="2.8" fill="url(#blush)"/>

  <path d="M21.5 30.4 Q24.2 28.8 27.1 29.7" stroke="#6b4520" stroke-width="1.5" stroke-linecap="round" fill="none"/>
  <path d="M42.5 30.4 Q39.8 28.8 36.9 29.7" stroke="#6b4520" stroke-width="1.5" stroke-linecap="round" fill="none"/>

  <ellipse cx="24.5" cy="34.5" rx="3.1" ry="3.7" fill="#33200c"/>
  <ellipse cx="39.5" cy="34.5" rx="3.1" ry="3.7" fill="#33200c"/>
  <circle cx="23.5" cy="33" r="1.2" fill="#ffffff"/>
  <circle cx="38.5" cy="33" r="1.2" fill="#ffffff"/>
  <circle cx="25.5" cy="35.9" r="0.55" fill="#ffffff" opacity="0.85"/>
  <circle cx="40.5" cy="35.9" r="0.55" fill="#ffffff" opacity="0.85"/>

  <ellipse cx="29.6" cy="43.6" rx="1.3" ry="1.7" fill="#8a5c2e"/>
  <ellipse cx="34.4" cy="43.6" rx="1.3" ry="1.7" fill="#8a5c2e"/>

  <path d="M26 47.5 Q32 50.3 38 47.5 Q37.1 54.4 32 54.4 Q26.9 54.4 26 47.5 Z" fill="#5b3016"/>
  <g clip-path="url(#mouth)">
    <ellipse cx="32" cy="54" rx="5.5" ry="4.6" fill="url(#tongue)"/>
  </g>
</svg>
