<svg xmlns="http://www.w3.org/2000/svg" viewBox="0 0 64 64">
  <defs>
    <radialGradient id="head" cx="36%" cy="24%" r="90%">
      <stop offset="0%" stop-color="#cdb3f2"/>
      <stop offset="45%" stop-color="#a082d6"/>
      <stop offset="100%" stop-color="#6f52ab"/>
    </radialGradient>
    <radialGradient id="ao" cx="50%" cy="42%" r="58%">
      <stop offset="62%" stop-color="#3d2a68" stop-opacity="0"/>
      <stop offset="100%" stop-color="#3d2a68" stop-opacity="0.3"/>
    </radialGradient>
    <radialGradient id="sheen" cx="50%" cy="50%" r="50%">
      <stop offset="0%" stop-color="#ffffff" stop-opacity="0.5"/>
      <stop offset="100%" stop-color="#ffffff" stop-opacity="0"/>
    </radialGradient>
    <radialGradient id="tuft" cx="42%" cy="22%" r="90%">
      <stop offset="0%" stop-color="#b797e6"/>
      <stop offset="100%" stop-color="#7457ae"/>
    </radialGradient>
    <radialGradient id="belly" cx="50%" cy="28%" r="85%">
      <stop offset="0%" stop-color="#f8f4fe"/>
      <stop offset="100%" stop-color="#d9c9f2"/>
    </radialGradient>
    <radialGradient id="eye" cx="42%" cy="30%" r="80%">
      <stop offset="0%" stop-color="#ffffff"/>
      <stop offset="100%" stop-color="#e9e1f8"/>
    </radialGradient>
    <radialGradient id="beak" cx="42%" cy="22%" r="90%">
      <stop offset="0%" stop-color="#ffd76a"/>
      <stop offset="100%" stop-color="#e89c14"/>
    </radialGradient>
    <radialGradient id="blush" cx="50%" cy="50%" r="50%">
      <stop offset="0%" stop-color="#ff8fb3" stop-opacity="0.5"/>
      <stop offset="100%" stop-color="#ff8fb3" stop-opacity="0"/>
    </radialGradient>
  </defs>

  <path d="M15.5 18 Q15.5 8 19.5 4.5 Q24.5 8 27 14.5 Q21 16.5 15.5 18 Z" fill="url(#tuft)"/>
  <path d="M48.5 18 Q48.5 8 44.5 4.5 Q39.5 8 37 14.5 Q43 16.5 48.5 18 Z" fill="url(#tuft)"/>

  <ellipse cx="32" cy="36" rx="21" ry="21.5" fill="url(#head)"/>
  <ellipse cx="32" cy="36" rx="21" ry="21.5" fill="url(#ao)"/>
  <ellipse cx="24" cy="23.5" rx="12" ry="9" fill="url(#sheen)"/>

  <ellipse cx="32" cy="48" rx="12" ry="8.5" fill="url(#belly)"/>
  <path d="M27 44.5 Q28.5 47 27 49.5 M32 45.5 Q33.5 48 32 50.5 M37 44.5 Q38.5 47 37 49.5" stroke="#c3aee6" stroke-width="1.2" stroke-linecap="round" fill="none"/>

  <ellipse cx="15" cy="42.5" rx="4" ry="3" fill="url(#blush)"/>
  <ellipse cx="49" cy="42.5" rx="4" ry="3" fill="url(#blush)"/>

  <circle cx="23.5" cy="30" r="8.4" fill="url(#eye)"/>
  <circle cx="40.5" cy="30" r="8.4" fill="url(#eye)"/>
  <ellipse cx="24.3" cy="31" rx="3.9" ry="4.3" fill="#241536"/>
  <ellipse cx="39.7" cy="31" rx="3.9" ry="4.3" fill="#241536"/>
  <circle cx="22.9" cy="29.2" r="1.45" fill="#ffffff"/>
  <circle cx="38.3" cy="29.2" r="1.45" fill="#ffffff"/>
  <circle cx="25.6" cy="32.8" r="0.6" fill="#ffffff" opacity="0.85"/>
  <circle cx="41" cy="32.8" r="0.6" fill="#ffffff" opacity="0.85"/>

  <path d="M32 45 Q28.3 41.2 27.9 38.6 Q32 37 36.1 38.6 Q35.7 41.2 32 45 Z" fill="url(#beak)"/>
  <ellipse cx="30.5" cy="39.6" rx="1.2" ry="0.75" fill="#ffffff" opacity="0.55"/>
</svg>
