<svg xmlns="http://www.w3.org/2000/svg" viewBox="0 0 64 64">
  <defs>
    <radialGradient id="head" cx="36%" cy="24%" r="90%">
      <stop offset="0%" stop-color="#ffcb7a"/>
      <stop offset="45%" stop-color="#ff9f3e"/>
      <stop offset="100%" stop-color="#dd7317"/>
    </radialGradient>
    <radialGradient id="ao" cx="50%" cy="42%" r="58%">
      <stop offset="62%" stop-color="#a04e05" stop-opacity="0"/>
      <stop offset="100%" stop-color="#a04e05" stop-opacity="0.28"/>
    </radialGradient>
    <radialGradient id="sheen" cx="50%" cy="50%" r="50%">
      <stop offset="0%" stop-color="#ffffff" stop-opacity="0.5"/>
      <stop offset="100%" stop-color="#ffffff" stop-opacity="0"/>
    </radialGradient>
    <radialGradient id="ear" cx="38%" cy="28%" r="90%">
      <stop offset="0%" stop-color="#ffb45e"/>
      <stop offset="100%" stop-color="#d76f18"/>
    </radialGradient>
    <radialGradient id="muzzle" cx="48%" cy="25%" r="85%">
      <stop offset="0%" stop-color="#ffffff"/>
      <stop offset="75%" stop-color="#fdf3e4"/>
      <stop offset="100%" stop-color="#e8d0ac"/>
    </radialGradient>
    <radialGradient id="blush" cx="50%" cy="50%" r="50%">
      <stop offset="0%" stop-color="#ff7a52" stop-opacity="0.4"/>
      <stop offset="100%" stop-color="#ff7a52" stop-opacity="0"/>
    </radialGradient>
  </defs>

  <circle cx="14" cy="18" r="7.5" fill="url(#ear)"/>
  <circle cx="50" cy="18" r="7.5" fill="url(#ear)"/>
  <circle cx="15" cy="19" r="4" fill="#fdeed7"/>
  <circle cx="49" cy="19" r="4" fill="#fdeed7"/>

  <ellipse cx="32" cy="36.5" rx="21" ry="19.5" fill="url(#head)"/>
  <ellipse cx="32" cy="36.5" rx="21" ry="19.5" fill="url(#ao)"/>
  <ellipse cx="24" cy="25" rx="12" ry="9" fill="url(#sheen)"/>

  <path d="M31.9 18.6 Q32 21.7 31.9 23.6 Q30.2 23.9 29 23.4 Q30.1 20.6 31.9 18.6 Z" fill="#4c2c10"/>
  <path d="M26.3 20 Q26.9 22.3 26.8 24.2 Q25.3 24.5 24.3 24 Q25 21.8 26.3 20 Z" fill="#4c2c10"/>
  <path d="M37.7 20 Q37.1 22.3 37.2 24.2 Q38.7 24.5 39.7 24 Q39 21.8 37.7 20 Z" fill="#4c2c10"/>
  <path d="M12.2 32.5 Q15.4 32.3 18 33.3 Q17.8 34.9 16.5 35.6 Q14 34.3 12.2 32.5 Z" fill="#4c2c10"/>
  <path d="M51.8 32.5 Q48.6 32.3 46 33.3 Q46.2 34.9 47.5 35.6 Q50 34.3 51.8 32.5 Z" fill="#4c2c10"/>
  <path d="M13.2 39.5 Q16 38.9 18.4 39.7 Q18.3 41.2 17.1 41.9 Q14.9 40.9 13.2 39.5 Z" fill="#4c2c10"/>
  <path d="M50.8 39.5 Q48 38.9 45.6 39.7 Q45.7 41.2 46.9 41.9 Q49.1 40.9 50.8 39.5 Z" fill="#4c2c10"/>

  <ellipse cx="32" cy="46" rx="11.5" ry="9" fill="url(#muzzle)"/>

  <ellipse cx="16.5" cy="44" rx="4" ry="3" fill="url(#blush)"/>
  <ellipse cx="47.5" cy="44" rx="4" ry="3" fill="url(#blush)"/>

  <ellipse cx="23.5" cy="33.5" rx="3.2" ry="3.8" fill="#33200c"/>
  <ellipse cx="40.5" cy="33.5" rx="3.2" ry="3.8" fill="#33200c"/>
  <circle cx="22.4" cy="32" r="1.25" fill="#ffffff"/>
  <circle cx="39.4" cy="32" r="1.25" fill="#ffffff"/>
  <circle cx="24.6" cy="35" r="0.55" fill="#ffffff" opacity="0.85"/>
  <circle cx="41.6" cy="35" r="0.55" fill="#ffffff" opacity="0.85"/>

  <path d="M29.8 42.3 Q32 41.2 34.2 42.3 Q34.5 44.4 32 45.6 Q29.5 44.4 29.8 42.3 Z" fill="#e8798f"/>
  <path d="M32 45.6 L32 47.4 M32 47.4 Q29.6 50.2 26.8 48.4 M32 47.4 Q34.4 50.2 37.2 48.4" stroke="#7a4a1c" stroke-width="1.6" stroke-linecap="round" fill="none"/>

  <circle cx="24.5" cy="45.2" r="0.55" fill="#c9a273"/>
  <circle cx="22.7" cy="47.1" r="0.55" fill="#c9a273"/>
  <circle cx="39.5" cy="45.2" r="0.55" fill="#c9a273"/>
  <circle cx="41.3" cy="47.1" r="0.55" fill="#c9a273"/>
</svg>
